<svg preserveAspectRatio="none" overflow="visible" style="display: block;" width="35" height="35" viewBox="0 0 35 35" fill="none" xmlns="http://www.w3.org/2000/svg">
<g id="icons">
<path id="linkedin-[#161]" fill-rule="evenodd" clip-rule="evenodd" d="M35 35H28V22.7517C28 19.3917 26.5178 17.5171 23.8595 17.5171C20.9668 17.5171 19.25 19.4705 19.25 22.7517V35H12.25V12.25H19.25V14.8083C19.25 14.8083 21.4462 10.9546 26.3952 10.9546C31.346 10.9546 35 13.9757 35 20.2267V35ZM4.2735 8.61157C1.91275 8.61157 0 6.68318 0 4.30493C0 1.92843 1.91275 0 4.2735 0C6.6325 0 8.54524 1.92843 8.54524 4.30493C8.54699 6.68318 6.6325 8.61157 4.2735 8.61157ZM0 35H8.75V12.25H0V35Z" fill="white"/>
</g>
</svg>
